<svg class="state-map map-gujarat" viewBox="-8 -8 576 452" xmlns="http://www.w3.org/2000/svg" role="img" aria-label="State map with the active district highlighted"><path class="km-state" d="M424 423L433 420L443 417L438 426L448 429L458 428L467 424L467 414L469 404L472 394L464 389L454 392L445 390L436 385L429 377L419 377L420 387L420 397L418 407L412 415L408 424L407 434L416 429L426 427ZM283 254L273 256L266 263L259 271L258 281L248 280L238 282L240 292L246 301L249 311L244 319L240 328L247 335L257 338L264 345L266 355L271 363L279 369L288 366L297 361L306 356L313 349L308 341L301 334L305 324L310 316L302 310L299 301L305 292L307 283L299 277L293 269L289 259ZM480 351L474 360L474 370L472 380L480 386L487 393L497 393L504 385L511 378L513 368L509 359L500 354L490 352L480 351ZM302 3L292 6L282 7L279 17L286 24L288 34L281 41L284 50L283 60L284 70L294 73L303 69L313 71L318 79L327 82L337 79L336 69L346 69L354 63L360 55L366 62L375 68L384 71L394 74L400 65L408 60L418 63L426 57L430 48L428 38L419 33L409 33L403 25L393 22L385 28L381 19L372 14L364 8L354 7L346 1L338 7L328 8L318 5L308 3ZM354 53L353 63L345 70L340 78L331 81L321 83L316 74L307 71L298 66L292 74L283 69L273 74L264 77L260 86L261 96L271 95L279 101L289 104L294 113L304 116L314 116L321 123L330 118L339 113L343 104L352 108L359 102L369 102L369 92L368 82L378 79L385 72L375 69L367 63L362 54ZM405 58L400 66L393 74L384 78L374 79L369 88L370 98L361 103L352 108L344 103L340 112L347 120L357 120L367 120L365 130L358 137L359 147L366 154L376 152L379 143L381 133L387 125L393 117L399 109L409 112L417 105L414 95L413 85L414 75L418 66L412 58ZM400 109L393 117L388 125L384 134L382 144L376 152L386 153L396 150L405 153L413 159L423 156L431 150L429 140L421 135L413 129L414 119L406 113ZM345 114L340 123L333 131L332 141L342 139L334 146L335 156L345 160L343 170L346 180L351 189L348 198L357 203L355 213L346 209L336 207L338 217L333 226L339 233L349 236L356 243L348 249L356 256L365 251L371 243L374 234L378 224L374 215L381 208L387 199L390 190L391 180L398 173L408 171L416 165L411 157L401 153L392 149L383 155L373 154L364 151L358 143L361 133L367 125L358 122L348 120ZM490 153L484 161L474 163L466 169L463 179L464 189L465 199L466 209L470 218L477 225L487 221L490 230L497 223L494 213L500 205L503 196L505 186L506 176L510 166L506 157L496 156ZM518 131L517 141L516 151L510 159L509 169L504 177L504 187L502 197L504 207L514 207L524 205L534 205L540 197L551 197L554 187L559 179L552 172L549 162L543 154L538 145L530 138L522 133ZM466 180L456 183L454 193L447 200L441 208L436 217L436 227L428 232L419 238L420 248L429 253L435 261L441 269L449 274L451 264L460 269L469 265L475 257L473 247L473 237L478 229L472 221L468 212L464 203L466 193L468 183ZM417 236L409 241L399 237L391 243L389 253L387 264L399 261L397 272L394 282L402 288L412 289L402 293L407 302L400 309L410 310L420 310L427 303L436 299L443 305L454 305L464 303L471 297L474 287L466 281L459 273L454 265L450 274L441 269L432 265L436 256L427 253L419 245L417 236ZM140 259L130 262L122 268L113 272L118 280L126 287L134 293L140 300L147 308L154 316L160 324L170 326L163 319L168 310L167 300L173 292L169 282L159 278L150 274L140 274L139 264ZM484 250L475 254L469 262L461 268L463 278L471 284L473 294L472 304L481 307L491 310L500 313L509 310L515 301L505 305L502 296L509 288L503 280L508 272L502 264L493 259L487 251ZM435 298L427 303L420 311L410 310L401 314L395 323L400 331L397 341L407 346L416 349L426 346L434 352L441 359L449 365L458 362L450 357L448 347L454 339L461 332L470 326L470 316L480 318L490 315L484 307L474 306L464 303L454 304L444 305L436 299ZM533 298L523 300L516 308L506 310L497 313L487 316L477 317L469 322L463 331L455 337L449 345L450 355L458 361L464 369L474 369L475 359L484 354L494 352L503 357L497 349L490 342L481 336L491 338L501 336L505 326L513 321L518 313L528 310L538 307L547 302L536 301ZM462 76L454 83L445 86L441 95L447 103L445 113L441 122L439 132L431 137L428 147L438 147L448 149L454 157L461 150L463 140L473 136L480 129L485 121L486 110L483 100L474 96L467 89L462 80ZM312 219L306 227L296 229L297 239L299 249L293 257L292 267L296 276L305 282L310 273L314 264L321 256L331 257L335 247L345 247L356 246L352 237L343 234L333 233L333 223L323 223L313 220ZM520 203L511 208L502 205L494 212L498 221L492 229L487 221L478 226L474 235L475 245L483 251L491 257L499 263L509 265L519 267L528 263L530 253L530 243L525 234L524 224L534 227L541 220L532 215L524 209ZM491 119L484 126L478 134L468 137L460 143L459 154L452 160L457 169L467 168L476 164L486 161L496 160L504 154L514 152L517 143L517 133L508 129L501 121L491 119ZM214 325L216 335L208 342L202 350L192 351L197 360L205 365L214 370L223 374L232 379L242 380L252 377L262 377L271 373L271 363L266 354L264 344L256 338L247 335L237 339L233 330L223 327ZM438 20L429 24L427 34L433 42L428 51L424 60L418 68L413 77L414 87L415 97L414 107L414 117L407 124L413 132L423 135L433 136L438 128L441 118L447 110L444 100L442 90L449 83L458 79L467 74L466 65L456 65L448 59L439 53L440 43L446 35L437 30ZM278 8L267 4L257 7L255 17L258 27L252 34L244 41L235 47L225 47L218 39L220 29L210 30L200 34L190 36L180 39L173 49L163 51L151 51L141 48L132 40L122 42L112 42L98 44L88 42L79 46L69 47L65 38L59 47L59 57L58 67L47 70L35 70L25 69L16 74L9 82L8 93L0 99L7 106L17 107L27 116L32 125L42 127L39 136L46 144L53 151L62 156L70 162L79 167L88 172L96 177L106 178L116 181L126 181L136 181L146 180L155 175L164 172L174 170L179 161L185 153L192 146L202 142L211 145L222 145L231 150L240 155L246 147L256 146L266 143L275 147L285 147L294 149L305 149L315 150L312 140L311 130L305 122L301 113L292 108L286 100L276 100L268 93L266 103L260 95L261 85L266 76L277 75L281 66L284 56L282 47L284 37L285 27L279 19L280 9ZM308 115L306 125L312 134L314 143L321 150L311 149L301 148L291 149L283 155L281 165L278 174L268 176L266 185L266 195L262 205L269 211L263 219L254 218L258 227L265 234L266 244L275 242L276 232L286 232L296 230L305 225L313 220L323 223L332 219L340 213L350 216L356 208L349 201L351 192L348 182L342 174L344 164L338 157L335 147L342 140L332 142L332 132L340 125L341 115L331 117L325 125L319 117L309 115ZM219 199L214 208L208 216L213 224L213 234L217 243L217 254L206 254L196 253L189 260L180 263L175 272L173 282L180 289L189 294L199 296L206 288L216 290L226 291L236 289L243 282L253 283L259 275L262 265L271 261L281 260L291 259L299 252L297 242L294 233L284 232L274 234L281 241L271 242L265 234L258 227L253 218L244 214L234 217L225 213L223 203ZM442 143L433 147L430 156L421 161L414 168L405 173L396 177L388 183L389 193L389 203L398 209L404 202L414 198L424 199L430 191L440 189L448 195L453 186L462 182L463 172L453 169L452 159L448 150ZM433 188L428 197L420 202L411 197L402 202L396 209L389 202L381 208L374 215L377 225L378 235L387 230L400 230L409 235L418 231L428 232L436 227L436 217L441 208L447 200L443 191L434 188ZM374 277L378 267L381 258L370 257L369 267L373 276ZM326 349L333 342L342 337L351 334L352 324L358 315L364 308L367 298L368 288L361 282L363 272L361 262L355 254L347 247L337 246L329 252L320 256L315 265L309 273L310 283L307 293L300 300L302 310L310 315L305 324L301 334L308 341L313 349L323 349ZM178 288L173 297L167 304L164 314L165 324L168 334L175 341L182 348L192 351L202 350L208 343L216 336L213 326L224 327L234 330L239 339L238 329L247 324L250 315L242 308L245 299L238 291L229 295L219 292L209 290L200 294L193 301L187 292L178 288ZM210 169L205 178L195 179L189 186L185 196L179 203L169 206L160 210L150 213L143 220L145 230L151 238L158 245L155 255L161 263L158 273L151 279L161 278L169 284L175 276L180 267L188 261L196 255L206 254L216 256L217 246L218 236L210 229L210 219L217 211L216 201L221 192L224 183L220 173L211 169ZM86 212L78 219L74 228L79 237L84 245L91 253L98 261L105 268L115 268L125 267L135 265L133 275L143 276L153 275L161 268L158 258L156 249L150 240L145 231L143 221L144 212L139 220L129 224L120 226L110 227L101 233L93 239L93 229L97 219L87 220ZM265 142L256 146L246 147L236 147L227 152L220 159L212 166L220 173L224 182L221 191L220 201L225 210L233 217L242 214L252 217L262 218L269 212L261 206L265 196L266 187L267 176L277 178L281 169L281 159L286 150L276 148L267 143ZM466 388L471 379L474 369L464 369L454 369L446 363L438 357L431 350L421 347L411 346L408 356L413 364L417 374L426 379L434 384L443 390L453 392L462 389Z"/><path class="km-d is-active" data-d="ahmedabad" data-cx="361" data-cy="183" d="M345 114L343 115L341 117L340 119L340 122L340 124L338 126L335 126L333 125L332 128L333 130L332 132L332 135L332 138L332 140L334 142L334 139L336 137L338 139L340 139L342 140L342 142L339 143L337 144L335 146L334 148L334 151L334 153L335 156L338 157L338 159L340 157L342 157L344 158L344 161L345 163L343 166L342 168L343 171L342 173L342 176L343 179L345 178L346 180L348 182L347 184L348 187L350 188L352 190L351 192L349 193L347 192L347 195L348 197L348 199L351 200L353 201L355 202L357 203L359 205L357 207L356 209L357 211L355 213L353 214L351 216L348 216L347 213L346 210L344 209L341 209L340 206L338 205L336 207L337 210L339 211L338 213L337 216L337 218L338 221L336 220L334 217L332 219L331 221L332 223L334 225L332 226L330 227L330 229L329 231L331 233L333 233L336 232L338 233L341 234L343 234L346 234L348 234L350 236L352 237L354 239L353 241L355 243L357 243L356 246L353 248L351 248L348 248L349 250L350 252L353 252L355 254L356 256L358 258L360 259L363 259L364 256L364 254L363 251L365 251L368 249L369 247L370 244L372 243L372 240L372 237L373 235L374 233L374 230L375 228L377 225L378 223L376 222L373 222L374 219L375 217L376 214L378 212L380 211L381 209L381 206L380 204L382 203L384 202L386 200L387 198L390 198L390 195L392 195L391 194L389 191L389 189L390 186L389 184L389 182L391 180L394 180L396 178L396 176L398 174L400 173L402 174L405 173L406 171L409 171L411 171L413 169L414 167L417 166L416 164L415 161L414 159L412 157L411 155L409 154L406 153L404 152L401 153L399 154L397 154L397 151L394 150L392 149L391 147L388 148L386 149L386 152L385 154L384 156L382 157L380 156L377 157L376 155L374 154L372 152L370 153L371 155L370 158L368 157L367 155L366 153L364 151L361 151L359 152L357 151L359 149L359 146L358 144L359 142L359 139L358 137L360 136L361 133L363 131L365 130L366 128L367 126L369 123L368 121L366 119L364 120L362 121L360 122L358 121L355 120L353 120L350 119L348 120L346 119L345 117Z"/><path class="km-d" data-d="rajkot" data-cx="234" data-cy="252" d="M219 199L217 201L216 203L216 206L219 206L218 208L215 207L214 209L216 210L219 210L216 211L215 214L213 213L212 211L211 213L209 213L207 215L207 218L210 217L210 219L209 221L211 223L213 224L212 226L209 226L210 229L212 230L212 233L214 234L217 235L219 237L221 239L218 240L217 242L217 245L219 246L217 248L217 251L215 253L217 255L215 256L213 257L213 255L211 253L209 252L207 254L204 254L202 254L199 253L196 253L196 255L193 256L191 257L190 259L187 261L186 263L186 265L184 267L183 266L182 263L180 265L180 268L178 270L176 272L177 274L174 275L172 276L170 277L172 279L173 281L175 283L175 285L178 285L179 287L180 289L179 291L179 294L182 294L184 293L186 292L188 293L191 294L191 297L189 299L190 301L192 301L193 298L194 296L197 296L200 296L200 293L202 291L204 290L206 288L207 291L210 290L212 289L215 288L216 291L218 292L220 293L223 292L225 291L227 292L228 294L231 294L231 292L232 289L234 288L236 289L237 286L235 285L236 283L238 282L241 282L244 282L246 280L248 280L250 282L253 283L256 283L258 282L259 279L259 276L261 274L263 273L264 271L262 271L259 271L258 269L260 268L261 266L263 266L265 264L267 262L269 261L272 260L272 258L275 257L277 257L277 259L279 261L281 260L280 258L280 255L283 254L284 256L285 258L288 259L290 259L292 258L295 257L295 255L298 253L299 250L299 248L299 245L297 244L298 241L296 239L294 238L295 235L294 233L293 235L290 236L290 234L289 231L287 230L287 232L284 232L282 233L279 232L277 231L275 233L274 235L276 236L279 237L281 239L281 241L279 242L276 242L274 240L272 241L271 243L268 245L266 246L266 243L269 242L268 239L266 237L265 235L264 233L262 232L260 230L259 228L257 226L256 224L257 222L257 219L254 219L252 217L250 217L247 216L245 215L243 214L241 213L238 212L236 214L238 216L235 216L233 218L231 217L228 216L227 214L225 212L225 210L223 209L222 206L223 204L221 202L220 200Z"/><path class="km-d" data-d="vadodara" data-cx="451" data-cy="233" d="M466 180L464 182L464 185L462 183L459 183L457 183L454 183L453 185L453 188L453 190L454 193L453 195L451 197L449 199L447 200L445 201L444 204L443 207L441 208L439 209L438 212L439 214L437 216L437 219L436 221L435 223L435 226L435 228L433 230L432 232L429 233L427 232L426 230L424 232L423 234L421 235L419 237L420 240L422 240L424 241L422 242L419 242L419 245L420 247L422 249L423 251L424 253L427 253L429 253L430 256L432 257L435 257L436 259L435 261L434 263L432 263L430 265L433 265L435 264L437 264L436 266L437 269L439 269L442 269L444 271L446 273L448 274L450 274L452 272L451 269L450 267L451 264L453 264L455 266L457 268L459 269L461 268L461 265L463 264L465 266L468 265L469 263L469 261L471 260L474 261L475 259L474 256L474 254L476 252L477 250L475 249L473 250L473 247L475 246L475 243L474 241L475 238L473 237L474 235L476 233L478 231L478 229L478 226L476 225L474 224L471 223L470 221L470 218L468 217L468 214L468 212L467 209L467 207L465 205L464 203L464 200L463 198L464 196L466 195L466 193L464 191L464 188L466 186L468 184L466 182Z"/><path class="km-d" data-d="surat" data-cx="442" data-cy="328" d="M435 298L435 301L434 303L435 306L433 306L432 304L431 302L428 303L426 303L426 306L424 308L423 310L421 311L418 310L416 311L414 312L411 312L412 309L409 310L408 308L405 308L403 311L401 313L400 315L400 318L398 320L396 321L395 325L397 328L399 331L399 334L398 336L398 340L397 343L399 345L401 343L404 343L404 346L407 346L409 346L412 346L414 347L416 349L418 347L421 348L423 349L425 347L427 346L430 346L432 347L431 349L433 351L435 353L436 355L438 356L439 359L441 360L442 362L445 362L447 363L448 365L450 366L452 368L454 369L456 370L457 367L457 365L458 363L457 361L455 359L453 357L450 357L451 354L451 352L448 351L449 348L448 346L450 344L453 344L451 341L453 340L455 338L455 335L457 333L459 332L462 332L463 330L462 327L465 326L467 326L470 325L469 323L469 320L470 318L472 316L474 316L475 319L478 317L480 318L483 317L485 316L488 316L490 315L491 313L491 310L490 308L488 307L485 307L483 306L481 307L478 307L476 306L473 305L471 304L469 303L467 304L464 303L462 303L460 305L457 305L455 304L453 305L450 305L448 304L445 305L443 305L440 305L438 304L437 302L437 299Z"/><g class="km-marker" style="transform:translate(361px,183px)"><circle class="km-ping" r="7"/><circle class="km-dot" r="5"/></g></svg>