<svg xmlns="http://www.w3.org/2000/svg" viewBox="30 20 720 980" role="img" aria-label="Illustration of a judge at the bench"><defs><clipPath id="jdgBench"><path d="M 81 358 L 738.6875 358 L 738.6875 408 L 81 408 Z M 81 358 " clip-rule="nonzero"/></clipPath><clipPath id="jdgRobe"><path d="M 300 27.109375 L 516 27.109375 L 516 359 L 300 359 Z M 300 27.109375 " clip-rule="nonzero"/></clipPath><clipPath id="jdgTrim"><path d="M 138 66 L 738.6875 66 L 738.6875 394 L 138 394 Z M 138 66 " clip-rule="nonzero"/></clipPath><clipPath id="jdgAll"><path d="M 74 131 L 738.6875 131 L 738.6875 985 L 74 985 Z M 74 131 " clip-rule="nonzero"/></clipPath></defs><path fill="#091933" d="M 510.683594 369.441406 L 295.695312 369.441406 C 276.359375 369.441406 260.660156 353.746094 260.660156 334.410156 L 260.660156 154.464844 C 260.660156 135.128906 276.359375 119.433594 295.695312 119.433594 L 510.492188 119.433594 C 529.828125 119.433594 545.527344 135.128906 545.527344 154.464844 L 545.527344 334.410156 C 545.527344 353.746094 529.828125 369.441406 510.683594 369.441406 Z M 510.683594 369.441406 " fill-opacity="1" fill-rule="nonzero"/><path fill="#303658" d="M 587.257812 358.339844 L 483.882812 421.703125 L 405.199219 321.964844 L 378.207031 358.339844 L 309.289062 384.757812 L 285.359375 403.898438 C 275.402344 415.960938 258.171875 418.640625 244.964844 410.40625 L 157.859375 347.234375 L 187.722656 298.613281 L 182.554688 268.367188 L 205.527344 269.515625 L 210.886719 260.898438 L 250.132812 302.058594 L 275.976562 224.527344 C 281.910156 206.917969 295.886719 193.324219 313.5 187.773438 L 386.628906 168.054688 L 409.21875 174.371094 L 431.808594 168.054688 L 504.941406 187.773438 C 522.742188 193.132812 536.71875 206.917969 542.460938 224.527344 Z M 587.257812 358.339844 " fill-opacity="1" fill-rule="nonzero"/><path fill="#aa584a" d="M 695.421875 952.160156 L 124.355469 952.160156 L 124.355469 389.925781 L 695.421875 389.925781 Z M 695.421875 952.160156 " fill-opacity="1" fill-rule="nonzero"/><g clip-path="url(#jdgBench)"><path fill="#5a3245" d="M 719.355469 407.917969 L 100.425781 407.917969 C 89.898438 407.917969 81.28125 399.304688 81.28125 388.777344 L 81.28125 377.671875 C 81.28125 367.144531 89.898438 358.53125 100.425781 358.53125 L 719.546875 358.53125 C 730.074219 358.53125 738.6875 367.144531 738.6875 377.671875 L 738.6875 388.777344 C 738.6875 399.304688 730.074219 407.917969 719.355469 407.917969 Z M 719.355469 407.917969 " fill-opacity="1" fill-rule="nonzero"/></g><g clip-path="url(#jdgRobe)"><path fill="#091933" d="M 307.949219 218.59375 C 316.5625 233.90625 317.710938 358.339844 317.710938 358.339844 L 300.863281 358.339844 Z M 508.578125 218.59375 C 499.960938 233.90625 498.8125 358.339844 498.8125 358.339844 L 515.660156 358.339844 Z M 409.410156 27.542969 C 378.207031 27.542969 352.746094 53.003906 352.746094 84.207031 L 352.746094 111.390625 L 465.121094 107.753906 L 466.078125 85.929688 C 467.035156 53.960938 441.382812 27.542969 409.410156 27.542969 Z M 409.410156 27.542969 " fill-opacity="1" fill-rule="nonzero"/></g><path fill="#ebd2bf" d="M 378.207031 170.351562 L 386.628906 168.054688 L 409.21875 174.371094 L 431.808594 168.054688 L 441.191406 170.542969 L 441.191406 358.339844 L 378.015625 358.339844 L 378.015625 170.351562 Z M 378.207031 170.351562 " fill-opacity="1" fill-rule="nonzero"/><g clip-path="url(#jdgTrim)"><path fill="#aa584a" d="M 459.1875 106.796875 C 462.25 107.945312 465.121094 107.753906 465.121094 107.753906 C 465.121094 107.753906 465.695312 117.902344 458.613281 117.902344 C 456.121094 133.214844 446.550781 146.230469 433.148438 153.316406 L 430.085938 162.3125 L 433.148438 168.054688 L 409.792969 197.535156 L 386.4375 168.054688 L 386.4375 161.929688 L 390.648438 160.207031 L 386.4375 153.316406 C 373.804688 146.421875 364.421875 134.363281 361.359375 119.816406 C 352.746094 121.921875 352.363281 111.390625 352.363281 111.390625 C 352.363281 111.390625 356.957031 111.199219 360.210938 109.859375 C 379.738281 101.054688 375.527344 66.597656 375.527344 66.597656 C 375.527344 66.597656 396.585938 77.316406 437.171875 66.597656 C 437.554688 66.597656 439.277344 98.949219 459.1875 106.796875 Z M 426.257812 217.253906 L 441.382812 181.265625 L 441.382812 188.921875 L 427.023438 225.675781 L 409.410156 203.46875 L 394.480469 225.675781 L 378.207031 190.261719 L 378.207031 181.265625 L 394.863281 217.253906 L 409.792969 197.535156 Z M 268.320312 387.820312 L 268.320312 393.179688 L 186.957031 393.179688 L 186.957031 387.820312 C 186.957031 377.671875 195.1875 369.441406 205.335938 369.441406 L 250.132812 369.441406 C 260.085938 369.441406 268.320312 377.671875 268.320312 387.820312 Z M 707.101562 211.128906 C 708.25 210.554688 709.207031 209.40625 709.207031 208.066406 L 709.207031 207.875 C 709.207031 205.960938 707.675781 204.425781 705.761719 204.425781 L 657.902344 204.425781 L 657.902344 182.605469 C 657.902344 180.691406 656.371094 178.96875 654.265625 178.96875 L 654.074219 178.96875 C 652.15625 178.96875 650.433594 180.5 650.433594 182.605469 L 650.433594 204.617188 L 602.574219 204.617188 C 600.660156 204.617188 599.128906 206.152344 599.128906 208.066406 L 599.128906 208.257812 C 599.128906 209.023438 599.320312 209.789062 599.894531 210.171875 L 568.308594 286.933594 L 568.308594 287.316406 C 568.308594 299.953125 578.644531 310.289062 591.28125 310.289062 L 610.617188 310.289062 C 623.25 310.289062 633.589844 299.953125 633.589844 287.316406 L 633.589844 286.933594 L 602.574219 211.320312 C 602.765625 211.320312 602.957031 211.320312 602.957031 211.320312 L 650.816406 211.320312 L 650.816406 361.402344 L 631.097656 361.402344 C 618.464844 361.402344 608.125 371.738281 608.125 384.375 L 608.125 384.757812 L 700.785156 384.757812 L 700.785156 384.375 C 700.785156 371.738281 690.445312 361.402344 677.8125 361.402344 L 658.09375 361.402344 L 658.09375 211.511719 L 704.421875 211.511719 L 673.40625 286.742188 L 673.40625 287.125 C 673.40625 299.761719 683.746094 310.097656 696.378906 310.097656 L 715.714844 310.097656 C 728.351562 310.097656 738.6875 299.761719 738.6875 287.125 L 738.6875 286.742188 Z M 625.738281 286.742188 L 575.390625 286.742188 L 601.234375 222.996094 Z M 680.109375 286.742188 L 705.953125 222.996094 L 730.457031 286.742188 Z M 680.109375 286.742188" fill-opacity="1" fill-rule="nonzero"/></g><g class="gavel"><path fill="#aa584a" d="M 205.527344 269.515625 L 186.574219 240.992188 C 181.597656 233.523438 171.640625 231.226562 163.792969 236.015625 L 159.390625 238.695312 C 157.859375 235.824219 154.222656 234.480469 151.347656 236.015625 L 144.074219 239.652344 C 139.480469 241.949219 137.375 247.5 139.289062 252.285156 L 150.007812 277.554688 C 152.113281 282.53125 157.859375 284.828125 162.835938 282.722656 L 170.300781 298.039062 C 173.746094 305.121094 183.511719 305.503906 187.722656 298.804688 Z" fill-opacity="1" fill-rule="nonzero"/></g><g clip-path="url(#jdgAll)"><path fill="#5a3245" d="M 409.984375 373.460938 L 418.601562 369.441406 L 429.511719 358.339844 L 413.429688 218.785156 L 418.21875 208.640625 L 409.984375 197.726562 L 401.753906 208.640625 L 406.539062 218.785156 L 390.457031 358.339844 Z M 181.023438 508.996094 L 198.445312 508.996094 C 230.222656 508.996094 256.257812 483.152344 256.257812 451.183594 L 256.257812 433.761719 L 563.519531 433.761719 L 563.519531 451.183594 C 563.519531 482.960938 589.367188 508.996094 621.335938 508.996094 L 638.757812 508.996094 L 638.757812 816.242188 L 621.335938 816.242188 C 589.558594 816.242188 563.519531 842.085938 563.519531 874.054688 L 563.519531 891.476562 L 256.257812 891.476562 L 256.257812 874.054688 C 256.257812 842.277344 230.414062 816.242188 198.445312 816.242188 L 181.023438 816.242188 Z M 216.054688 782.933594 C 253.195312 790.015625 282.484375 819.304688 289.761719 856.636719 L 530.402344 856.636719 C 537.484375 819.496094 566.777344 790.207031 604.105469 782.933594 L 604.105469 542.304688 C 566.96875 535.222656 537.675781 505.933594 530.402344 468.601562 L 289.570312 468.601562 C 282.484375 505.742188 253.195312 535.03125 215.863281 542.304688 Z M 433.148438 153.316406 C 426.257812 156.953125 418.21875 159.25 409.792969 159.25 C 401.371094 159.25 393.523438 157.144531 386.4375 153.316406 L 386.4375 161.929688 L 432.957031 168.054688 Z M 719.355469 935.3125 L 100.425781 935.3125 C 89.898438 935.3125 81.28125 943.929688 81.28125 954.457031 L 81.28125 965.558594 C 81.28125 976.089844 89.898438 984.703125 100.425781 984.703125 L 719.546875 984.703125 C 730.074219 984.703125 738.6875 976.089844 738.6875 965.558594 L 738.6875 954.457031 C 738.6875 943.738281 730.074219 935.3125 719.355469 935.3125 Z M 719.355469 935.3125" fill-opacity="1" fill-rule="nonzero"/></g><g class="gavel"><path fill="#5a3245" d="M 172.023438 258.792969 L 186.191406 287.699219 C 186.191406 287.699219 185.042969 293.632812 176.429688 293.25 L 161.304688 263.769531 C 164.558594 268.175781 172.023438 258.792969 172.023438 258.792969 Z M 105.210938 202.128906 L 125.886719 191.601562 L 154.605469 247.5 C 155.5625 240.035156 163.792969 235.824219 163.792969 235.824219 L 137.375 185.859375 L 156.902344 175.902344 C 165.898438 171.308594 169.535156 160.398438 164.941406 151.402344 L 160.15625 142.019531 C 155.5625 133.023438 144.648438 129.386719 135.652344 133.980469 L 83.960938 160.207031 C 74.964844 164.800781 71.519531 175.710938 75.921875 184.710938 L 80.707031 194.089844 C 85.300781 203.085938 96.214844 206.535156 105.210938 202.128906 Z" fill-opacity="1" fill-rule="nonzero"/></g></svg>