<svg class="kerala-map" viewBox="-6 -6 368 652" xmlns="http://www.w3.org/2000/svg" role="img" aria-label="Map of Kerala with the Kollam district highlighted"><path class="km-state" d="M211 421L210 426L211 430L212 436L213 441L214 448L214 455L214 460L219 461L224 460L226 465L229 468L230 473L230 477L230 482L231 487L227 490L231 493L236 494L239 489L243 490L249 491L250 496L255 498L251 503L248 507L250 511L254 514L252 518L248 520L243 521L238 524L235 521L230 521L226 523L227 527L224 523L223 519L220 514L219 510L217 506L215 500L213 496L211 492L209 488L207 482L206 477L205 473L203 468L203 463L202 458L200 450L199 444L199 437L199 432L198 427L198 422L200 415L205 415L211 417ZM255 359L254 365L251 369L249 374L251 377L257 380L260 384L264 387L269 390L273 392L268 392L267 397L261 399L259 404L257 407L252 409L248 409L248 414L245 419L240 421L237 425L233 422L231 419L226 419L222 420L217 422L213 420L209 415L202 414L201 418L198 423L196 414L194 410L193 405L191 399L189 394L187 388L185 383L184 379L183 374L186 370L190 368L194 369L197 372L203 372L205 368L211 363L214 359L217 355L222 355L228 356L232 357L238 357L242 356L246 358L251 357L255 359ZM339 365L338 369L337 374L337 379L332 379L328 381L328 385L331 389L334 392L335 397L337 401L334 404L331 409L329 414L332 417L330 422L333 426L330 429L330 435L327 441L325 445L323 450L328 452L332 457L336 458L341 455L346 457L348 453L348 459L350 463L355 465L354 470L353 475L348 477L346 481L346 486L344 491L341 495L339 501L335 499L330 497L332 493L333 487L331 481L329 477L324 475L320 473L317 469L312 473L307 474L307 479L303 481L299 479L293 478L294 474L295 468L290 468L286 465L283 460L284 455L284 450L289 452L288 448L285 443L284 438L280 435L276 432L273 428L268 425L263 425L258 422L254 420L248 419L248 414L247 410L252 409L257 410L258 405L258 399L263 399L267 393L273 394L269 390L264 387L260 384L257 380L253 377L249 374L251 369L254 365L255 360L261 359L266 359L271 358L275 358L280 358L284 360L287 364L292 365L296 366L300 363L305 361L307 357L311 354L316 352L321 348L326 347L330 347L330 352L333 357L335 361L338 364ZM85 70L88 74L92 78L95 82L97 87L100 91L105 91L109 93L111 98L116 98L120 101L125 101L130 102L131 106L135 111L136 116L141 120L146 121L150 126L147 131L149 135L144 135L140 135L135 134L130 135L130 140L124 141L121 144L117 142L113 146L108 151L104 153L101 157L97 155L92 154L88 150L85 146L82 143L78 139L75 135L71 134L67 130L64 127L62 122L67 123L64 119L61 116L56 114L53 110L49 112L46 107L44 102L46 97L46 93L45 88L49 85L53 82L58 80L60 76L65 74L70 74L74 71L79 71L84 71ZM77 42L79 46L74 49L71 54L74 58L78 60L77 65L80 69L75 72L71 73L66 75L61 75L60 79L56 81L51 82L48 85L46 90L45 95L44 99L45 104L43 100L41 95L39 91L37 86L36 82L34 78L32 73L30 69L28 65L26 60L23 56L21 52L19 48L18 43L15 39L12 32L10 28L8 23L6 18L4 14L2 9L0 5L5 5L9 3L14 2L18 0L20 4L17 8L20 12L24 10L27 15L31 18L34 14L38 17L40 21L43 25L47 23L48 28L50 32L55 29L58 25L62 28L59 32L58 38L62 42L66 43L69 47L71 43L76 43ZM247 418L252 420L256 421L260 424L266 424L271 427L275 430L278 435L283 437L285 442L289 447L290 451L285 449L284 454L283 459L285 463L288 467L292 470L297 471L292 475L290 479L284 477L280 475L275 475L270 475L266 477L264 473L259 474L255 471L250 471L246 474L242 476L239 480L234 480L230 482L230 477L230 473L229 468L226 465L224 460L219 461L214 462L214 456L215 450L214 445L212 441L212 434L211 429L212 423L217 422L221 421L225 419L230 418L233 422L237 425L240 422L245 420ZM94 157L99 159L103 157L106 151L111 148L115 145L119 142L124 144L129 142L129 147L133 151L137 154L142 156L147 157L145 163L146 168L149 171L153 173L155 177L159 180L164 183L169 181L172 185L176 188L178 192L175 197L173 203L175 208L172 211L168 215L163 217L158 219L153 219L147 221L143 223L140 226L144 229L140 232L137 236L132 233L130 227L127 220L126 215L124 211L123 205L120 201L118 197L114 191L109 189L105 185L104 180L102 176L100 171L99 167L97 162L95 158ZM221 226L216 226L217 231L217 236L214 241L209 242L206 245L202 248L199 252L203 252L207 255L205 260L204 264L200 267L196 269L191 271L189 267L183 268L179 271L175 273L173 278L167 278L163 280L166 284L164 289L168 292L166 297L161 299L157 299L152 299L150 294L148 288L145 284L145 280L143 273L142 268L141 261L140 256L139 251L137 245L136 239L138 235L141 231L140 226L143 223L147 221L152 220L157 218L161 217L166 217L169 213L174 211L172 205L173 201L177 195L182 190L185 185L190 182L194 187L199 187L203 190L207 190L212 191L217 192L221 199L226 201L231 203L236 208L234 212L232 216L222 221L221 226ZM276 349L271 349L267 350L263 345L259 344L253 344L249 343L244 340L242 336L237 336L233 331L228 329L224 326L221 322L219 317L215 314L219 310L218 305L222 302L222 298L226 294L222 291L216 291L212 288L209 291L204 291L199 290L194 291L191 287L187 286L186 291L183 295L178 295L173 295L169 294L165 290L165 284L163 280L166 277L172 278L174 274L177 270L181 268L187 270L191 271L196 269L200 267L204 269L204 262L207 258L204 254L200 252L204 248L207 243L212 241L217 239L216 233L216 227L221 226L226 225L231 226L237 227L243 226L248 227L254 224L258 221L261 224L259 228L257 233L261 237L263 242L263 247L267 249L263 250L258 251L255 255L253 260L251 264L255 267L260 269L264 270L269 271L275 274L278 277L280 281L285 282L286 287L283 293L281 298L282 302L281 307L276 307L273 312L276 315L277 321L275 326L275 334L274 339L277 343L276 348ZM338 501L337 506L336 511L336 516L333 521L330 524L328 529L323 528L318 527L314 526L309 523L304 522L300 520L295 518L290 515L289 520L294 521L288 522L281 521L278 525L273 525L268 523L267 529L262 527L256 527L251 526L251 520L253 516L252 511L248 507L251 503L254 500L250 496L249 492L243 490L239 489L236 493L231 493L226 493L230 489L231 484L233 480L239 480L242 476L246 474L250 471L255 471L258 475L263 472L265 476L270 476L275 476L280 475L284 477L288 480L293 478L299 479L303 481L308 480L305 475L310 474L314 471L319 470L322 473L326 475L330 478L333 485L332 489L330 495L332 499L337 500ZM327 572L324 576L325 580L328 585L330 590L333 593L335 598L337 602L336 607L333 611L328 609L329 615L327 620L325 624L320 626L320 631L324 635L318 634L315 637L310 639L306 635L302 631L299 628L295 626L293 621L290 618L286 614L283 610L280 606L277 602L275 598L272 595L268 591L265 587L263 583L260 580L257 576L254 572L257 569L263 568L267 567L268 562L272 560L277 562L280 566L286 568L289 573L294 572L299 572L300 567L303 562L310 562L316 565L320 568L325 571ZM276 349L275 354L279 356L283 360L277 357L272 357L267 358L262 358L257 359L252 359L247 358L242 356L238 357L232 357L228 356L223 355L217 355L214 359L211 363L207 364L203 368L200 372L195 370L191 368L186 370L181 369L179 365L178 360L176 352L174 347L172 341L170 337L168 332L166 329L164 323L166 319L164 323L161 319L160 314L156 308L154 303L155 299L159 299L164 297L168 295L173 295L178 295L183 296L185 292L185 286L190 286L193 290L198 290L203 291L208 291L212 288L215 291L220 291L225 291L224 297L222 302L218 305L219 310L215 313L219 316L220 321L223 325L227 328L232 331L236 334L241 335L244 339L246 343L251 343L255 346L260 344L265 346L268 349L273 348ZM217 147L218 152L216 157L219 160L219 166L213 166L211 170L207 172L202 174L198 170L191 174L193 178L190 182L185 185L182 189L178 190L173 187L170 181L166 183L161 182L158 179L153 175L150 172L146 169L145 164L145 159L142 156L137 154L133 151L129 148L130 143L131 138L132 134L137 134L141 135L147 135L149 130L148 124L152 122L157 123L162 122L166 120L171 118L175 122L175 130L176 134L181 132L185 131L188 135L190 140L195 140L199 143L203 148L208 150L214 148Z"/><path class="km-kollam" d="M328 529L327 531L326 533L324 533L322 533L321 535L320 536L320 538L321 540L323 541L324 543L325 545L326 547L326 549L327 551L330 550L330 553L332 554L333 556L335 557L335 559L335 561L334 564L333 566L331 568L330 570L329 571L327 572L325 571L323 570L321 569L319 567L316 566L314 564L312 563L310 562L306 561L303 562L302 564L302 566L300 567L301 569L303 571L299 572L298 570L296 570L295 572L293 572L291 573L287 571L287 569L285 566L283 567L280 566L278 565L277 563L275 562L274 560L272 560L269 560L268 562L270 564L269 565L267 567L265 568L263 569L261 568L259 569L257 569L255 571L254 569L252 569L250 567L249 566L248 564L247 562L246 561L244 559L242 557L240 556L238 556L236 555L235 553L235 551L234 549L234 546L233 543L232 540L231 537L230 535L229 532L228 530L227 528L226 523L228 522L230 521L234 520L235 522L236 524L238 524L239 523L241 522L243 521L245 521L248 520L249 518L251 518L251 520L250 522L251 524L251 526L253 526L256 527L258 527L260 528L262 527L264 527L265 529L267 527L266 525L268 523L272 524L273 525L275 526L277 525L278 523L279 522L281 521L283 522L285 523L287 522L290 523L292 522L294 521L292 520L290 520L288 517L289 515L291 516L295 518L298 520L300 520L302 521L304 522L305 521L307 523L310 524L311 524L314 526L316 526L317 527L320 527L322 529L324 529L327 529Z"/><circle class="km-ping" cx="283" cy="544" r="7"/><circle class="km-dot" cx="283" cy="544" r="5"/></svg>