<svg class="state-map map-ph" viewBox="-8 -8 440 656" xmlns="http://www.w3.org/2000/svg" role="img" aria-label="State map with the active district highlighted"><path class="km-state" d="M166 40L160 48L151 53L142 57L133 61L123 60L118 69L116 78L122 86L131 91L139 96L148 101L155 109L163 114L172 119L181 115L185 106L188 96L192 87L189 77L190 67L194 57L190 48L180 48L171 42ZM196 57L189 64L188 74L192 84L192 94L188 103L183 111L192 115L201 119L208 126L213 135L220 142L221 152L231 154L233 163L243 166L252 171L257 180L265 174L275 170L274 160L264 160L258 151L258 141L254 132L249 123L244 115L240 105L236 96L237 86L232 77L225 70L216 66L207 60L197 58ZM115 60L108 68L100 73L91 77L83 84L78 92L73 101L74 111L79 120L84 129L94 128L103 125L113 128L122 133L131 130L141 133L151 133L161 134L168 125L167 115L160 108L151 106L143 100L135 93L126 89L118 83L122 73L119 64ZM201 118L194 125L186 132L181 140L182 150L178 159L172 167L163 172L156 179L146 177L136 181L145 187L151 194L161 197L171 200L181 202L191 202L201 202L211 199L221 200L231 197L233 187L228 179L220 174L210 177L208 167L205 158L215 154L221 146L216 137L209 130L205 121ZM104 124L95 127L85 130L88 140L81 147L75 155L74 165L72 175L76 184L86 184L94 190L101 182L112 181L122 179L131 175L137 167L140 157L146 149L153 142L160 135L151 133L141 132L131 130L121 132L112 129ZM284 142L280 151L274 159L281 167L284 177L291 184L294 194L290 203L280 202L278 212L285 219L292 227L301 231L306 222L311 214L320 210L315 201L312 191L311 181L315 172L309 164L299 164L292 157L287 148ZM225 162L219 170L227 177L232 186L236 195L245 200L255 200L265 199L275 199L285 203L295 202L294 192L290 183L284 175L275 170L266 175L257 180L252 171L243 166L233 164ZM62 250L38 240L31 247L25 255L17 262L10 269L6 278L5 288L10 297L11 307L8 317L2 326L7 335L17 335L28 335L38 336L48 337L59 338L66 330L58 323L57 313L53 303L45 299L49 290L50 280L53 270L58 261L62 252ZM146 187L138 193L138 203L132 211L122 214L120 224L117 234L123 242L122 252L127 262L137 262L144 255L148 264L158 263L169 263L174 255L170 245L171 235L173 225L173 215L169 206L163 198L154 194L146 188ZM170 199L171 209L170 219L172 229L170 239L173 249L182 252L192 255L201 253L211 249L219 243L229 244L233 253L242 250L250 257L256 248L264 242L274 241L276 231L274 222L278 213L278 203L268 198L258 201L248 199L238 199L228 198L218 200L208 199L198 202L188 203L178 202ZM326 207L316 211L309 218L305 228L302 237L309 245L317 250L327 252L330 262L328 272L338 273L343 282L344 272L348 262L347 252L341 244L331 242L324 235L329 226L339 226L334 218L328 209ZM85 221L76 226L68 232L68 242L78 243L86 250L93 257L97 266L100 276L109 280L119 282L129 280L133 271L127 263L122 254L123 244L117 236L109 230L101 224L92 222ZM279 215L274 224L273 234L266 242L258 247L254 256L264 258L274 259L280 267L289 270L298 264L304 257L312 250L307 242L302 233L292 231L288 222L279 216ZM71 243L63 249L56 256L57 266L49 272L49 282L48 292L54 300L54 310L57 320L64 327L64 337L75 338L84 343L92 337L93 327L92 317L97 308L96 298L100 289L106 281L99 274L96 264L91 255L84 247L75 243ZM223 240L218 249L208 251L202 259L204 269L204 279L203 289L211 295L202 300L193 303L196 313L201 322L202 332L204 342L214 342L216 352L223 358L232 364L242 365L251 360L255 351L246 347L240 338L245 329L252 322L249 312L250 302L259 298L255 289L246 287L246 276L249 267L251 257L244 250L236 256L228 249L223 240ZM181 251L175 259L164 260L158 268L162 277L167 286L169 296L173 305L183 308L192 312L194 302L204 300L202 290L204 280L204 270L202 260L193 256L184 252ZM144 254L137 261L134 271L133 281L123 280L113 280L104 285L94 284L99 293L95 302L88 309L91 319L95 328L103 334L113 336L121 342L129 348L137 343L141 352L151 350L147 340L156 335L157 325L161 316L168 309L169 299L164 290L163 280L158 271L152 263L146 255ZM315 248L308 255L299 259L299 269L289 270L280 266L273 258L263 259L253 261L251 271L245 279L249 288L259 289L261 299L251 302L249 312L252 321L245 328L242 338L244 348L254 350L263 354L263 344L265 334L267 324L266 314L276 316L286 316L288 306L294 314L301 321L310 316L310 306L305 298L314 293L323 288L323 278L328 269L327 259L319 253ZM172 303L168 312L159 317L156 326L150 334L149 344L152 353L155 363L151 372L153 382L159 390L161 380L168 372L174 365L180 356L188 362L198 365L208 363L212 354L215 345L205 343L202 333L200 323L199 313L189 312L181 306ZM119 178L109 182L99 184L92 191L82 194L74 201L65 205L58 212L50 219L47 229L40 236L62 250L69 243L67 233L75 227L83 222L93 222L103 226L111 231L119 226L121 216L131 213L137 205L136 195L144 188L136 182L126 182ZM223 0L216 7L208 14L199 18L190 22L180 24L170 23L170 34L174 43L183 47L193 49L203 49L199 40L207 33L216 29L222 21L231 15L228 6ZM219 150L210 154L204 162L206 172L215 178L221 170L230 166L228 156L220 150ZM184 114L175 119L167 126L161 135L154 142L147 149L141 157L137 166L131 175L140 179L150 175L160 175L169 169L179 168L177 158L183 149L180 140L187 132L194 125L193 115ZM315 484L310 492L301 497L291 498L295 508L290 517L280 518L279 528L288 533L297 538L307 540L316 542L323 534L333 532L342 528L337 519L344 512L351 504L350 494L342 487L334 492L324 494L317 487ZM356 523L347 527L337 528L328 533L322 541L317 550L319 560L329 562L339 563L345 555L354 551L358 560L366 565L376 567L381 558L373 551L375 542L369 534L362 527ZM395 527L386 530L382 540L373 544L375 554L384 560L394 562L402 567L413 567L412 557L413 547L407 538L399 532ZM267 533L256 534L251 543L242 537L232 537L234 547L240 555L245 564L250 572L242 577L239 587L241 597L235 605L239 614L249 614L258 618L264 610L262 600L266 591L276 592L276 582L274 572L281 564L281 554L277 545L271 537ZM277 532L276 542L283 549L281 559L276 568L283 576L293 575L297 584L303 592L314 594L316 584L324 578L332 572L339 564L329 564L320 560L317 550L315 540L305 541L295 538L287 532ZM353 550L345 556L339 565L346 572L351 581L348 590L348 600L348 611L346 620L343 630L346 640L354 634L363 630L360 620L369 621L379 617L389 619L391 609L381 606L373 600L372 590L371 580L374 571L366 565L358 559L353 550ZM385 558L379 566L372 574L371 584L372 594L379 602L385 610L394 614L403 609L411 603L415 594L411 585L413 575L407 567L397 563L388 559ZM278 487L273 496L268 504L258 504L248 507L240 513L230 514L223 521L228 530L235 537L243 542L253 537L263 537L273 537L279 529L280 519L290 519L292 510L285 502L286 492ZM379 266L375 276L375 286L371 295L365 303L363 313L365 323L369 332L377 338L386 333L390 324L399 319L404 310L412 304L417 295L422 287L418 278L408 278L399 273L390 270L380 270ZM339 297L330 304L321 306L314 314L306 318L296 318L290 326L293 336L299 344L309 342L319 341L327 348L336 344L346 342L355 337L365 338L367 328L363 319L357 310L349 305L340 301ZM290 306L287 315L277 317L268 313L268 323L266 332L263 342L269 350L265 359L262 368L264 378L271 386L281 386L289 392L299 395L304 386L311 379L319 373L321 363L322 353L321 343L309 342L299 344L295 335L290 327L295 318L291 308ZM106 332L97 336L88 341L78 340L76 351L68 358L77 363L82 372L80 382L83 392L81 401L80 411L86 419L95 414L105 414L115 412L122 419L130 425L137 432L146 430L155 425L158 415L161 406L159 396L154 387L148 379L150 369L153 359L143 358L138 350L128 348L121 341L112 336ZM369 332L361 337L351 339L343 345L333 347L323 350L321 360L320 370L314 377L304 381L301 390L302 402L312 400L322 398L331 401L341 398L350 401L360 402L371 399L370 389L368 379L373 370L372 360L376 350L380 341L372 335ZM264 351L256 358L248 363L238 366L236 376L237 386L234 396L241 403L251 406L261 408L262 418L265 428L272 435L276 444L282 452L292 455L297 447L298 437L306 430L315 426L315 416L325 412L328 402L317 399L308 401L299 395L289 391L281 386L271 386L264 378L262 368L265 359ZM216 354L209 361L199 364L189 361L180 356L174 364L167 371L163 380L162 390L160 400L154 409L157 418L155 428L164 425L173 420L181 414L191 415L199 409L209 406L214 397L224 395L232 389L237 380L235 370L228 364L222 355ZM234 386L225 390L216 395L216 407L206 407L198 412L188 415L178 415L171 421L166 430L174 435L170 444L172 454L180 461L189 467L198 465L204 473L214 475L224 473L229 464L239 463L239 453L248 459L257 457L265 463L271 454L276 446L274 436L266 430L265 420L264 410L254 409L245 407L240 398L237 388ZM335 395L328 402L325 412L315 416L318 426L328 428L335 435L345 434L355 438L365 439L372 432L374 422L373 412L370 403L360 403L350 400L340 398ZM311 424L306 433L296 431L299 440L296 450L306 453L315 456L324 461L330 469L335 478L341 486L351 487L360 484L370 481L379 477L378 467L374 458L371 448L366 440L356 438L346 434L336 435L331 426L321 428L312 425ZM240 452L239 463L229 464L224 473L214 476L205 473L199 465L189 467L183 475L187 484L187 495L190 504L194 513L200 522L207 529L216 534L223 541L231 536L224 528L224 518L234 514L243 510L253 508L263 505L270 498L275 489L281 482L274 475L266 469L265 459L255 457L245 454ZM303 450L294 454L284 453L274 454L269 462L269 473L278 476L280 486L285 495L288 504L295 497L305 496L313 490L320 497L330 496L336 488L335 478L330 469L324 461L316 455L306 455ZM338 214L338 224L337 234L338 244L346 250L344 260L345 270L355 268L360 260L369 257L375 248L372 239L363 234L357 226L350 219L340 215ZM370 258L360 258L355 267L346 271L347 282L339 275L329 274L324 283L318 291L309 296L315 304L326 305L335 301L344 306L354 309L362 314L365 305L374 300L375 290L377 281L376 270L375 260Z"/><path class="km-d is-active" data-d="panchkula" data-cx="350" data-cy="242" d="M346 273L344 272L344 275L346 273ZM338 214L336 212L336 209L333 210L331 211L330 214L331 216L333 218L334 220L337 221L338 223L339 226L338 228L337 230L337 233L338 235L338 237L336 239L336 242L338 244L340 243L341 246L343 247L345 249L347 250L346 253L346 255L346 258L344 259L345 260L348 262L348 265L345 266L345 268L345 271L348 270L350 269L352 267L354 269L356 267L357 265L360 263L361 261L360 259L363 259L365 258L367 257L370 256L371 255L374 254L375 251L375 249L375 246L374 244L374 241L373 239L371 237L369 236L367 234L364 233L362 233L359 234L358 232L357 230L358 227L357 225L355 224L352 223L350 223L349 221L349 218L348 216L346 215L344 213L342 215L339 214Z"/><path class="km-d" data-d="gurgaon" data-cx="348" data-cy="547" d="M356 523L357 525L355 526L352 526L350 528L348 527L345 527L343 528L341 528L338 528L335 529L334 531L332 533L330 532L328 534L326 533L324 530L322 529L322 532L323 534L323 538L322 540L324 543L325 545L324 547L322 547L320 545L317 545L317 548L317 550L316 553L319 552L319 555L319 557L319 560L322 560L324 560L327 561L329 563L332 563L333 561L335 562L338 563L340 562L341 560L344 561L346 560L345 557L346 554L348 552L350 553L352 551L354 551L356 553L357 556L358 558L358 561L360 562L362 564L363 566L366 565L368 565L371 565L373 566L375 568L377 567L378 564L378 562L380 560L381 558L380 555L377 555L375 554L373 552L373 549L373 546L373 544L375 542L374 540L373 537L371 536L369 534L368 532L369 529L367 528L365 526L362 527L360 525L358 524Z"/><path class="km-d" data-d="chandigarh" data-cx="331" data-cy="234" d="M330 226L327 228L326 230L324 230L322 232L324 234L325 237L326 239L328 240L330 242L332 243L335 242L336 240L337 238L338 236L337 234L337 231L334 231L335 229L332 229L331 227Z"/><path class="km-d" data-d="mohali" data-cx="329" data-cy="245" d="M326 207L323 208L321 209L319 210L317 211L314 212L312 213L310 215L310 218L308 218L306 220L306 222L306 225L305 227L303 228L302 231L302 233L302 236L304 237L305 240L306 242L309 243L310 245L312 246L313 249L316 249L317 251L317 253L320 253L320 255L322 254L324 255L326 254L328 251L331 251L330 254L329 256L327 258L328 261L330 262L329 265L329 267L327 269L328 271L327 274L329 274L331 276L334 276L336 276L337 274L339 276L341 277L343 279L343 282L345 283L347 281L349 279L346 278L346 276L345 273L345 271L345 268L345 266L348 265L348 262L346 261L343 260L346 258L346 256L346 253L347 251L345 249L344 247L341 246L341 244L341 241L340 243L337 243L336 241L334 243L331 242L329 241L327 240L325 238L324 235L323 233L322 231L325 230L327 228L329 227L331 227L332 230L334 228L334 231L336 231L338 229L339 226L338 224L338 221L336 220L334 218L332 217L331 214L330 212L329 210L327 208Z"/><g class="km-marker" style="transform:translate(350px,242px)"><circle class="km-ping" r="7"/><circle class="km-dot" r="5"/></g></svg>